<?xml version="1.0" encoding="UTF-8" standalone="no"?><!-- Generator: Gravit.io --><svg xmlns="http://www.w3.org/2000/svg" xmlns:xlink="http://www.w3.org/1999/xlink" style="isolation:isolate" viewBox="0 0 1920 1280" width="1920pt" height="1280pt"><defs><clipPath id="_clipPath_PYskfaOOys1meE4uamH5l5SEwF4ESGNt"><rect width="1920" height="1280"/></clipPath></defs><g clip-path="url(#_clipPath_PYskfaOOys1meE4uamH5l5SEwF4ESGNt)"><path d=" M 516.714 0 L 0 0 L 0 1280 L 1920 1280 L 1920 1083.086 C 1841.826 1012.321 1786.614 939.386 1637.094 870.713 C 1557.043 841.631 1487.488 846.917 1407.107 846.462 C 1259.729 845.878 1167.409 806.409 1100.368 728.648 C 1092.809 721.989 1033.646 622.335 1023.241 571.959 C 1006.949 492.66 994.558 431.238 967.875 350.413 C 926.389 246.017 864.082 187.254 799.524 125.371 C 741.484 80.354 703.558 54.524 623.476 34.108 C 587.072 25.353 551.487 13.987 516.714 0 Z " fill-rule="evenodd" fill="rgb(243,247,251)"/><path d=" M 1651 1011.069 C 1869.019 1080.752 1962.635 1184.466 2036 1289.588 C 1471.216 1295.915 76.411 1354.735 -4.511 1289.588 C -73.1 1234.37 -8.925 203.098 -4.511 -175 C 58.755 -137.44 61.698 -140.536 112.154 -121.892 C 176.711 -98.038 220.6 -94.099 364.553 -16.858 C 429.526 23.542 491.321 51.404 612.466 131.844 C 714.961 209.289 847.379 323.834 873.84 605.091 C 885.596 730.053 935.658 753.364 1011.818 837 C 1150.267 933.854 1243.317 926.952 1350 944 C 1417.831 954.839 1465.049 965.332 1651 1011.069 Z " fill="rgb(226,232,240)"/><path d=" M 1460 1044 C 1672.28 1091.245 1753.599 1190.926 1819 1280 C 1315.527 1285.361 72.138 1335.201 0 1280 C -61.143 1233.212 -3.935 359.376 0 39 C 56.398 70.826 59.022 68.203 104 84 C 161.549 104.212 200.674 107.551 329 173 C 386.92 207.232 442.007 230.84 550 299 C 641.369 364.623 759.412 461.681 783 700 C 793.48 805.885 838.108 844.666 906 915.534 C 982.383 986.318 1019.107 1017.796 1116 1034 C 1207.956 1049.379 1281.426 1015.173 1460 1044 Z " fill="rgb(220,224,232)"/></g></svg>